<svg width="10" height="32" viewBox="0 0 32 32" fill="none" xmlns="http://www.w3.org/2000/svg">
<path fill-rule="evenodd" clip-rule="evenodd" d="M29.3332 15.9998C29.3332 23.3636 23.3636 29.3332 15.9998 29.3332C8.63604 29.3332 2.6665 23.3636 2.6665 15.9998C2.6665 8.63604 8.63604 2.6665 15.9998 2.6665C23.3636 2.6665 29.3332 8.63604 29.3332 15.9998ZM11.9593 11.9594C12.3499 11.5689 12.983 11.5689 13.3736 11.9594L15.9998 14.5856L18.626 11.9594C19.0165 11.5689 19.6497 11.5689 20.0402 11.9594C20.4308 12.3499 20.4308 12.9831 20.0402 13.3736L17.414 15.9998L20.0402 18.626C20.4308 19.0165 20.4308 19.6497 20.0402 20.0402C19.6497 20.4308 19.0165 20.4308 18.626 20.0402L15.9998 17.4141L13.3736 20.0402C12.9831 20.4308 12.3499 20.4308 11.9594 20.0402C11.5689 19.6497 11.5689 19.0165 11.9594 18.6261L14.5856 15.9998L11.9593 13.3736C11.5688 12.9831 11.5688 12.3499 11.9593 11.9594Z" fill="#525252"/>
</svg>
